<?xml version="1.0" encoding="UTF-8" standalone="no"?>
<!-- Created with Inkscape (http://www.inkscape.org/) -->

<svg
   width="393pt"
   height="851pt"
   viewBox="0 0 138.64166 300.21389"
   version="1.1"
   id="svg5"
   inkscape:version="1.2 (dc2aeda, 2022-05-15)"
   sodipodi:docname="belayme_background_v2.svg"
   xmlns:inkscape="http://www.inkscape.org/namespaces/inkscape"
   xmlns:sodipodi="http://sodipodi.sourceforge.net/DTD/sodipodi-0.dtd"
   xmlns="http://www.w3.org/2000/svg"
   xmlns:svg="http://www.w3.org/2000/svg">
  <sodipodi:namedview
     id="namedview7"
     pagecolor="#ffffff"
     bordercolor="#000000"
     borderopacity="0.25"
     inkscape:showpageshadow="2"
     inkscape:pageopacity="0.0"
     inkscape:pagecheckerboard="0"
     inkscape:deskcolor="#bcbcbc"
     inkscape:document-units="mm"
     showgrid="false"
     inkscape:zoom="0.62432159"
     inkscape:cx="433.27029"
     inkscape:cy="607.05893"
     inkscape:window-width="1920"
     inkscape:window-height="1080"
     inkscape:window-x="1280"
     inkscape:window-y="0"
     inkscape:window-maximized="0"
     inkscape:current-layer="layer1-9-9-0" />
  <defs
     id="defs2" />
  <g
     inkscape:label="Background"
     inkscape:groupmode="layer"
     id="layer1-9-9-0"
     style="display:inline"
     transform="translate(511.32392,-8.923125)">
    <path
       id="path1272-5-5-5"
       style="fill:#117a65;fill-opacity:1;stroke-width:0.252699"
       d="M -511.32392,8.923125 V 248.16005 c 2.67089,-2.05856 5.05143,-4.59703 6.9698,-7.40186 5.51912,-8.06945 7.27179,-18.24563 10.9307,-28.7909 3.6589,-10.54529 9.22417,-21.45966 14.77965,-33.78072 5.55549,-12.32105 11.10101,-26.04852 18.95859,-34.78739 7.85757,-8.73887 18.0265,-12.48838 24.8537,-15.17744 6.82721,-2.68906 10.31279,-4.31777 17.30364,-6.31552 6.99086,-1.99775 17.48645,-4.36447 24.26633,-10.39089 6.77989,-6.02643 9.84337,-15.711944 15.09851,-21.661233 1.63848,-1.854912 3.49025,-3.346391 5.48075,-4.704871 V 8.923125 Z" />
  </g>
</svg>
