<svg id="visual" viewBox="0 0 1536 768" width="1536" height="768" xmlns="http://www.w3.org/2000/svg" xmlns:xlink="http://www.w3.org/1999/xlink" version="1.1"><rect x="0" y="0" width="1536" height="768" fill="#e0e0e0"></rect><path d="M0 458L219 455L439 525L658 527L878 550L1097 538L1317 472L1536 495L1536 769L1317 769L1097 769L878 769L658 769L439 769L219 769L0 769Z" fill="#f5f5f5"></path><path d="M0 594L219 551L439 571L658 541L878 543L1097 594L1317 566L1536 532L1536 769L1317 769L1097 769L878 769L658 769L439 769L219 769L0 769Z" fill="#c1d6cf"></path><path d="M0 650L219 608L439 579L658 644L878 636L1097 637L1317 597L1536 653L1536 769L1317 769L1097 769L878 769L658 769L439 769L219 769L0 769Z" fill="#8db7aa"></path><path d="M0 663L219 674L439 634L658 653L878 659L1097 660L1317 654L1536 655L1536 769L1317 769L1097 769L878 769L658 769L439 769L219 769L0 769Z" fill="#589887"></path><path d="M0 675L219 707L439 715L658 729L878 704L1097 731L1317 715L1536 681L1536 769L1317 769L1097 769L878 769L658 769L439 769L219 769L0 769Z" fill="#117a65"></path></svg>