<svg id="visual" viewBox="0 0 540 960" width="540" height="960" xmlns="http://www.w3.org/2000/svg" xmlns:xlink="http://www.w3.org/1999/xlink" version="1.1"><rect x="0" y="0" width="540" height="960" fill="#e0e0e0"></rect><path d="M0 572L77 570L154 656L231 659L309 688L386 673L463 590L540 619L540 961L463 961L386 961L309 961L231 961L154 961L77 961L0 961Z" fill="#f5f5f5"></path><path d="M0 743L77 689L154 714L231 676L309 679L386 743L463 708L540 665L540 961L463 961L386 961L309 961L231 961L154 961L77 961L0 961Z" fill="#c1d6cf"></path><path d="M0 813L77 760L154 724L231 805L309 795L386 796L463 746L540 817L540 961L463 961L386 961L309 961L231 961L154 961L77 961L0 961Z" fill="#8db7aa"></path><path d="M0 829L77 843L154 792L231 816L309 824L386 825L463 818L540 819L540 961L463 961L386 961L309 961L231 961L154 961L77 961L0 961Z" fill="#589887"></path><path d="M0 844L77 884L154 894L231 911L309 880L386 913L463 894L540 851L540 961L463 961L386 961L309 961L231 961L154 961L77 961L0 961Z" fill="#117a65"></path></svg>